<svg width="79" height="50" viewBox="0 0 79 50" fill="none" xmlns="http://www.w3.org/2000/svg">
<path fill-rule="evenodd" clip-rule="evenodd" d="M22.9074 0C25.2357 0 27.3323 0.204763 29.2436 0.624513C31.1593 1.02805 32.7776 1.71591 34.1511 2.64969C35.5085 3.58646 36.5552 4.83398 37.3294 6.3894C38.0701 7.92998 38.4404 9.86388 38.4404 12.1543C38.4404 14.6331 37.8879 16.6879 36.7725 18.3433C35.647 19.9944 34.0126 21.3362 31.8199 22.3981C34.8115 23.2702 37.0189 24.7974 38.5001 26.9656C39.98 29.1499 40.6915 31.7672 40.6915 34.85C40.6915 37.3435 40.2118 39.4777 39.2758 41.2865C38.3194 43.1114 37.0233 44.5901 35.4356 45.7302C33.8318 46.8819 31.9802 47.7244 29.9114 48.2695C27.8571 48.8115 25.7446 49.0958 23.5605 49.0958H0V0.00448969L22.9103 0.00598626L22.9075 0H22.9074ZM51.5503 3.96056H71.2531V8.80939L51.5503 8.80789V3.95907V3.96056ZM55.9285 40.5544C57.3807 41.9846 59.4626 42.7034 62.1802 42.7034C64.1237 42.7034 65.8236 42.2026 67.2248 41.2055C68.6258 40.2083 69.4773 39.1522 69.8024 38.0593L78.3153 38.0608C76.942 42.344 74.8746 45.387 72.0374 47.2265C69.2425 49.0662 65.8223 50 61.8537 50C59.0734 50 56.5919 49.5448 54.3539 48.6567C52.1174 47.7539 50.2512 46.4931 48.6766 44.8361C47.1502 43.185 45.9474 41.2217 45.0974 38.9135C44.2635 36.6247 43.8348 34.0811 43.8348 31.3386C43.8348 28.6741 44.2693 26.1952 45.128 23.9034C46.0072 21.5939 47.2114 19.6188 48.8151 17.9485C50.4174 16.2797 52.2997 14.9556 54.5229 13.9894C56.7304 13.0217 59.168 12.5371 61.8681 12.5371C64.8439 12.5371 67.4507 13.116 69.6887 14.2987C71.9106 15.4653 73.7461 17.0413 75.1807 19.0061C76.6183 20.9724 77.6345 23.2303 78.2672 25.7534C78.8999 28.2764 79.1158 30.9099 78.9423 33.673H53.536C53.536 36.4613 54.4633 39.13 55.9256 40.5442L55.9285 40.5544ZM67.0221 21.8855C65.882 20.6085 63.9211 19.906 61.562 19.906C60.0166 19.906 58.7395 20.1696 57.7218 20.6998C56.7201 21.2272 55.9009 21.8811 55.2681 22.6633C54.6513 23.4424 54.2169 24.2849 53.9763 25.17C53.73 26.0272 53.5769 26.8211 53.5258 27.509L69.2645 27.5075C69.0326 25.0154 68.1841 23.1758 67.028 21.8826L67.0222 21.8855H67.0221ZM21.515 19.8249C23.4104 19.8249 24.9835 19.3697 26.2169 18.4522C27.4503 17.5493 28.0378 16.0529 28.0378 13.9938C28.0378 12.8582 27.8366 11.9038 27.4357 11.1703C27.0217 10.4383 26.4778 9.85938 25.7853 9.45585C25.1044 9.03747 24.3362 8.75177 23.4278 8.59714C22.5486 8.4278 21.6214 8.34973 20.6825 8.34973H10.6868V19.819H21.5179L21.515 19.8249ZM22.1011 40.7239C23.1537 40.7239 24.1553 40.6295 25.0899 40.4086C26.0463 40.1906 26.8963 39.865 27.6035 39.3673C28.3135 38.8826 28.917 38.2464 29.3457 37.4039C29.7802 36.5761 29.9784 35.5186 29.9784 34.2268C29.9784 31.7038 29.2669 29.8937 27.8659 28.8008C26.4647 27.7226 24.5985 27.1953 22.2847 27.1953H10.6839V40.7046L22.1011 40.7032V40.7237V40.7239Z" fill="black"/>
</svg>
