<svg width="51" height="50" viewBox="0 0 51 50" fill="none" xmlns="http://www.w3.org/2000/svg">
<path fill-rule="evenodd" clip-rule="evenodd" d="M25.4986 0.00865026C11.4184 0.00865026 0 11.4837 0 25.6379C0 36.9627 7.30545 46.5665 17.4374 49.9571C18.7127 50.1945 19.1814 49.3999 19.1814 48.7225C19.1814 48.1114 19.156 46.0926 19.1456 43.9527C12.051 45.5033 10.5554 40.9274 10.5554 40.9274C9.39586 37.9644 7.72428 37.1765 7.72428 37.1765C5.41084 35.5843 7.90031 35.6193 7.90031 35.6193C10.4603 35.7991 11.8081 38.2587 11.8081 38.2587C14.0839 42.1771 17.7752 41.0428 19.2293 40.3891C19.459 38.7326 20.1178 37.6012 20.8482 36.9608C15.1841 36.3146 9.23019 34.1161 9.23019 24.2946C9.23019 21.4972 10.2279 19.2098 11.857 17.416C11.5917 16.769 10.7182 14.1637 12.1027 10.6341C12.1027 10.6341 14.2439 9.94448 19.1174 13.2612C21.1503 12.6945 23.331 12.4088 25.4967 12.3994C27.6642 12.4088 29.8487 12.6936 31.8845 13.2612C36.7514 9.94641 38.8907 10.6341 38.8907 10.6341C40.2771 14.1647 39.4074 16.7718 39.142 17.4161C40.7768 19.2098 41.7661 21.4972 41.7661 24.2946C41.7661 34.1388 35.7989 36.3032 30.1226 36.938C31.0375 37.7326 31.8544 39.2926 31.8544 41.6823C31.8544 45.1097 31.8252 47.872 31.8252 48.7149C31.8252 49.397 32.2845 50.1945 33.5777 49.9447C43.7039 46.5524 51 36.9474 51 25.6294C51 11.477 39.5835 0 25.5005 0L25.4986 0.00857017L25.4986 0.00865026Z" fill="black"/>
</svg>
