<svg width="50" height="50" viewBox="0 0 50 50" fill="none" xmlns="http://www.w3.org/2000/svg">
<path d="M25.0082 0C14.5709 0 11.5184 0.0107672 10.925 0.0599887C8.78314 0.238032 7.45031 0.575276 5.99827 1.29822C4.87925 1.85388 3.99673 2.49799 3.12574 3.4009C1.5395 5.04751 0.578139 7.07329 0.230128 9.48129C0.0609287 10.6503 0.0117072 10.8887 0.00170908 16.8599C-0.00213635 18.8503 0.00170908 21.4698 0.00170908 24.9834C0.00170908 35.4122 0.0132454 38.4616 0.063236 39.0538C0.23628 41.138 0.563142 42.4493 1.25532 43.8837C2.57815 46.6293 5.1046 48.6905 8.08096 49.4595C9.11154 49.7249 10.2498 49.871 11.711 49.9402C12.3302 49.9671 18.6405 49.9864 24.9547 49.9864C31.2689 49.9864 37.5831 49.9787 38.1868 49.9479C39.8788 49.8683 40.8613 49.7364 41.9477 49.4557C44.9433 48.6828 47.4236 46.6524 48.7733 43.8683C49.452 42.4686 49.7962 41.1073 49.9519 39.1319C49.9858 38.7012 50 31.8344 50 24.9768C50 18.1181 49.9846 11.264 49.9508 10.8333C49.7931 8.82603 49.4489 7.47629 48.7483 6.04963C48.1734 4.88177 47.5351 4.00963 46.6083 3.11788C44.9544 1.53817 42.9317 0.576815 40.5214 0.229188C39.3535 0.0603733 39.1209 0.0103827 33.1451 0H25.0082Z" fill="url(#paint0_radial_266_1268)"/>
<path d="M25.0082 0C14.5709 0 11.5184 0.0107672 10.925 0.0599887C8.78314 0.238032 7.45031 0.575276 5.99827 1.29822C4.87925 1.85388 3.99673 2.49799 3.12574 3.4009C1.5395 5.04751 0.578139 7.07329 0.230128 9.48129C0.0609287 10.6503 0.0117072 10.8887 0.00170908 16.8599C-0.00213635 18.8503 0.00170908 21.4698 0.00170908 24.9834C0.00170908 35.4122 0.0132454 38.4616 0.063236 39.0538C0.23628 41.138 0.563142 42.4493 1.25532 43.8837C2.57815 46.6293 5.1046 48.6905 8.08096 49.4595C9.11154 49.7249 10.2498 49.871 11.711 49.9402C12.3302 49.9671 18.6405 49.9864 24.9547 49.9864C31.2689 49.9864 37.5831 49.9787 38.1868 49.9479C39.8788 49.8683 40.8613 49.7364 41.9477 49.4557C44.9433 48.6828 47.4236 46.6524 48.7733 43.8683C49.452 42.4686 49.7962 41.1073 49.9519 39.1319C49.9858 38.7012 50 31.8344 50 24.9768C50 18.1181 49.9846 11.264 49.9508 10.8333C49.7931 8.82603 49.4489 7.47629 48.7483 6.04963C48.1734 4.88177 47.5351 4.00963 46.6083 3.11788C44.9544 1.53817 42.9317 0.576815 40.5214 0.229188C39.3535 0.0603733 39.1209 0.0103827 33.1451 0H25.0082Z" fill="url(#paint1_radial_266_1268)"/>
<path d="M24.9966 6.53723C19.9837 6.53723 19.3546 6.55915 17.3857 6.64875C15.4207 6.73873 14.0794 7.04983 12.9058 7.50628C11.6918 7.97773 10.662 8.60838 9.63605 9.63473C8.60932 10.6607 7.97867 11.6905 7.50568 12.9041C7.04808 14.0781 6.7366 15.4198 6.64815 17.384C6.56009 19.3529 6.53702 19.9824 6.53702 24.9953C6.53702 30.0082 6.55932 30.6354 6.64854 32.6043C6.7389 34.5693 7.05 35.9106 7.50607 37.0842C7.9779 38.2982 8.60855 39.328 9.6349 40.354C10.6605 41.3807 11.6903 42.0129 12.9035 42.4843C14.0779 42.9408 15.4196 43.2519 17.3842 43.3419C19.3531 43.4314 19.9818 43.4534 24.9943 43.4534C30.0076 43.4534 30.6348 43.4314 32.6037 43.3419C34.5687 43.2519 35.9115 42.9408 37.0859 42.4843C38.2995 42.0129 39.3278 41.3807 40.3534 40.354C41.3801 39.328 42.0107 38.2982 42.4837 37.0846C42.9375 35.9106 43.249 34.5689 43.3413 32.6046C43.4297 30.6358 43.4528 30.0082 43.4528 24.9953C43.4528 19.9824 43.4297 19.3533 43.3413 17.3844C43.249 15.4194 42.9375 14.0781 42.4837 12.9045C42.0107 11.6905 41.3801 10.6607 40.3534 9.63473C39.3266 8.608 38.2999 7.97735 37.0847 7.50628C35.908 7.04983 34.566 6.73873 32.601 6.64875C30.6321 6.55915 30.0053 6.53723 24.9909 6.53723H24.9966ZM23.3408 9.86353C23.8322 9.86276 24.3806 9.86353 24.9966 9.86353C29.9249 9.86353 30.5091 9.88122 32.4552 9.96966C34.2549 10.052 35.2316 10.3527 35.8823 10.6053C36.7436 10.9399 37.3578 11.3398 38.0034 11.9858C38.6494 12.6319 39.0494 13.2471 39.3847 14.1085C39.6373 14.7584 39.9384 15.7351 40.0203 17.5348C40.1088 19.4806 40.128 20.0651 40.128 24.9911C40.128 29.9171 40.1088 30.5016 40.0203 32.4474C39.938 34.247 39.6373 35.2238 39.3847 35.8736C39.0501 36.735 38.6494 37.3484 38.0034 37.994C37.3574 38.64 36.744 39.04 35.8823 39.3745C35.2324 39.6283 34.2549 39.9283 32.4552 40.0106C30.5094 40.099 29.9249 40.1182 24.9966 40.1182C20.0679 40.1182 19.4838 40.099 17.538 40.0106C15.7384 39.9275 14.7616 39.6268 14.1106 39.3741C13.2492 39.0396 12.6339 38.6397 11.9879 37.9936C11.3419 37.3476 10.942 36.7339 10.6066 35.8721C10.354 35.2222 10.0529 34.2455 9.97099 32.4458C9.88254 30.5 9.86485 29.9155 9.86485 24.9865C9.86485 20.0574 9.88254 19.476 9.97099 17.5302C10.0533 15.7305 10.354 14.7538 10.6066 14.1031C10.9412 13.2417 11.3419 12.6265 11.9879 11.9804C12.6339 11.3344 13.2492 10.9345 14.1106 10.5992C14.7612 10.3454 15.7384 10.0454 17.538 9.96274C19.2408 9.88583 19.9007 9.86276 23.3408 9.85892V9.86353ZM34.8494 12.9283C33.6265 12.9283 32.6344 13.9193 32.6344 15.1425C32.6344 16.3654 33.6265 17.3575 34.8494 17.3575C36.0722 17.3575 37.0644 16.3654 37.0644 15.1425C37.0644 13.9197 36.0722 12.9276 34.8494 12.9276V12.9283ZM24.9966 15.5163C19.7618 15.5163 15.5176 19.7605 15.5176 24.9953C15.5176 30.2301 19.7618 34.4724 24.9966 34.4724C30.2314 34.4724 34.4741 30.2301 34.4741 24.9953C34.4741 19.7605 30.2314 15.5163 24.9966 15.5163ZM24.9966 18.8426C28.3944 18.8426 31.1493 21.5971 31.1493 24.9953C31.1493 28.3931 28.3944 31.148 24.9966 31.148C21.5984 31.148 18.8439 28.3931 18.8439 24.9953C18.8439 21.5971 21.5984 18.8426 24.9966 18.8426Z" fill="white"/>
<defs>
<radialGradient id="paint0_radial_266_1268" cx="0" cy="0" r="1" gradientUnits="userSpaceOnUse" gradientTransform="translate(13.2813 53.8364) rotate(-90) scale(49.5402 46.0888)">
<stop stop-color="#FFDD55"/>
<stop offset="0.1" stop-color="#FFDD55"/>
<stop offset="0.5" stop-color="#FF543E"/>
<stop offset="1" stop-color="#C837AB"/>
</radialGradient>
<radialGradient id="paint1_radial_266_1268" cx="0" cy="0" r="1" gradientUnits="userSpaceOnUse" gradientTransform="translate(-8.37526 3.60093) rotate(78.6776) scale(22.1449 91.3052)">
<stop stop-color="#3771C8"/>
<stop offset="0.128" stop-color="#3771C8"/>
<stop offset="1" stop-color="#6600FF" stop-opacity="0"/>
</radialGradient>
</defs>
</svg>
