<svg width="59" height="59" viewBox="0 0 59 59" fill="none" xmlns="http://www.w3.org/2000/svg">
<g id="Vector">
<path fill-rule="evenodd" clip-rule="evenodd" d="M22.5984 13.3077H36.4016C41.5867 13.3077 45.8161 17.5018 45.8161 22.5984V36.3662C45.8161 41.4805 41.5867 45.6569 36.4016 45.6569H22.5984C17.4133 45.6569 13.1839 41.4805 13.1839 36.3662V22.5984C13.1839 17.4841 17.431 13.3077 22.5984 13.3077ZM35.269 15.9445H23.731C19.3953 15.9445 15.856 19.4661 15.856 23.784V35.3929C15.856 39.7109 19.3953 43.2325 23.731 43.2325H35.269C39.6047 43.2325 43.144 39.7109 43.144 35.3929V23.784C43.144 19.4661 39.6047 15.9445 35.269 15.9445Z" fill="black"/>
<path fill-rule="evenodd" clip-rule="evenodd" d="M29.4115 20.7579C34.455 20.7579 38.5429 24.8458 38.5429 29.8893C38.5429 34.9328 34.455 39.0207 29.4115 39.0207C24.368 39.0207 20.2801 34.9328 20.2801 29.8893C20.2801 24.8458 24.368 20.7579 29.4115 20.7579ZM35.446 29.8716C35.446 26.5447 32.7385 23.8371 29.4115 23.8371C26.0846 23.8371 23.377 26.5447 23.377 29.8716C23.377 33.1986 26.0669 35.9061 29.4115 35.9061C32.7385 35.9061 35.446 33.1986 35.446 29.8716Z" fill="black"/>
<path d="M38.242 19.4838C39.0561 19.4838 39.7286 20.1386 39.7286 20.9703C39.7286 21.7843 39.0738 22.4568 38.242 22.4568C37.428 22.4568 36.7555 21.802 36.7555 20.9703C36.7555 20.1563 37.4103 19.4838 38.242 19.4838Z" fill="black"/>
</g>
</svg>
