<svg width="60" height="50" viewBox="0 0 60 50" fill="none" xmlns="http://www.w3.org/2000/svg">
<path fill-rule="evenodd" clip-rule="evenodd" d="M59.9991 5.9118C57.7934 6.92372 55.417 7.59624 52.9357 7.89594C55.4778 6.33411 57.422 3.85915 58.3501 0.912391C55.9741 2.35401 53.3333 3.41136 50.5352 3.97696C48.2854 1.52453 45.0898 0 41.5497 0C34.7526 0 29.2492 5.64885 29.2492 12.6176C29.2492 13.6011 29.3556 14.5634 29.5639 15.4913C19.3362 14.9594 10.2689 9.93659 4.19906 2.29437C3.11023 4.22126 2.53405 6.41222 2.53405 8.64048V8.64196C2.53405 13.0176 4.69964 16.8876 8.00409 19.1445C5.98772 19.083 4.09106 18.5062 2.42569 17.5714V17.7291C2.42569 23.8483 6.66543 28.9542 12.2991 30.1084C11.267 30.3959 10.1774 30.5547 9.05494 30.5547C8.25987 30.5547 7.49379 30.4707 6.73203 30.3287C8.30559 35.3401 12.8476 38.9933 18.2263 39.0999C14.0089 42.4894 8.71185 44.5077 2.93725 44.5077C1.94059 44.5077 0.969664 44.4451 0 44.326C5.4587 47.9191 11.9252 50 18.872 50C41.5044 50 53.8913 30.7591 53.8913 14.0762C53.8913 13.5219 53.8793 12.9847 53.8569 12.4416C56.2607 10.6776 58.3447 8.45139 59.9944 5.91716L60 5.91143L59.9989 5.91217L59.9991 5.9118Z" fill="#1DA1F2"/>
</svg>
